<svg width="179" height="87" viewBox="0 0 179 87" fill="none" xmlns="http://www.w3.org/2000/svg">
<rect width="178.386" height="85.8543" transform="translate(0.59668 0.854492)" fill="white"/>
<path fill-rule="evenodd" clip-rule="evenodd" d="M104.173 71.3031V65.2703H105.708L108.791 69.2067V65.2703H110.238V71.3031H108.641L105.658 67.4419V71.3031H104.173ZM97.1679 68.2992C97.1679 68.9814 97.3684 69.5133 97.7756 69.8638C98.1766 70.2142 98.6842 70.3895 99.317 70.3895C99.9185 70.3895 100.451 70.2142 100.833 69.8638C101.259 69.5133 101.435 68.9814 101.435 68.2742C101.435 67.5608 101.259 67.0601 100.883 66.7159C100.451 66.3592 99.9436 66.209 99.317 66.209C98.6591 66.209 98.1516 66.3842 97.7756 66.7159C97.3684 67.0601 97.1679 67.5858 97.1679 68.2992ZM95.6766 68.318C95.6766 67.7172 95.8019 67.1853 96.0275 66.7848L96.7167 65.9337L97.6691 65.4017C98.1516 65.2202 98.6842 65.1451 99.292 65.1451C100.401 65.1451 101.284 65.4267 101.949 65.9775C102.575 66.5344 102.932 67.3167 102.932 68.2992C102.932 69.2818 102.6 70.0703 101.949 70.6273C101.284 71.1717 100.401 71.4346 99.317 71.4346C98.2017 71.4346 97.312 71.1717 96.6603 70.6273C96.0275 70.0703 95.6766 69.3131 95.6766 68.318ZM89.7492 66.3342V70.2643H90.9209L91.9046 70.2142L92.5374 69.9639L92.9698 69.3819L93.1139 68.2992L92.9698 67.2416L92.5124 66.6596L91.773 66.3842C91.5474 66.3592 91.1214 66.3342 90.4635 66.3342H89.7492ZM88.2642 65.2703H91.0399C91.679 65.2703 92.1552 65.3204 92.5124 65.4017L93.6465 65.9587L94.3608 66.9412L94.6114 68.343L94.3796 69.6322L93.5525 70.6961L92.4873 71.1717L91.1464 71.3031H88.2642V65.2703ZM80.6011 71.3031V65.2703H82.1738L85.2378 69.2067V65.2703H86.6977V71.3031H85.1062L82.0986 67.4419V71.3031H80.6011ZM73.6273 68.2992C73.6273 68.9814 73.7965 69.5133 74.2037 69.8638C74.6361 70.2142 75.1373 70.3895 75.7764 70.3895C76.3592 70.3895 76.9043 70.2142 77.2928 69.8638C77.6938 69.5133 77.9006 68.9814 77.9006 68.2742C77.9006 67.5608 77.6938 67.0601 77.3178 66.7159C76.9043 66.3592 76.403 66.209 75.7764 66.209C75.0872 66.209 74.5797 66.3842 74.2037 66.7159C73.7965 67.0601 73.6273 67.5858 73.6273 68.2992ZM72.136 68.318C72.136 67.7172 72.2551 67.1853 72.4556 66.7848L73.1699 65.9337L74.1285 65.4017C74.5797 65.2202 75.1373 65.1451 75.7201 65.1451C76.8354 65.1451 77.7188 65.4267 78.4018 65.9775C79.0347 66.5344 79.3667 67.3167 79.3667 68.2992C79.3667 69.2818 79.0597 70.0703 78.4018 70.6273C77.7188 71.1717 76.8354 71.4346 75.7764 71.4346C74.6611 71.4346 73.7714 71.1717 73.0884 70.6273C72.4556 70.0703 72.136 69.3131 72.136 68.318ZM65.9141 71.3031V65.2703H67.4053V70.2643H71.2776V71.3031H65.9141ZM27.8557 30.7754C28.4948 30.6502 28.971 30.5 29.6038 30.3436C32.3357 29.0794 34.7418 27.0893 35.5501 24.0541L35.4498 22.79C34.6165 20.6246 32.6177 19.1853 30.3933 18.7347C29.2216 18.6283 28.2379 18.3529 27.204 18.5782L25.9384 19.4669L25.6627 19.9926C25.2804 23.4283 26.5649 26.7076 26.8218 30.1433L27.2542 30.6502L27.8557 30.7754ZM107.406 37.5154L108.515 37.409C109.48 37.1086 110.182 36.1824 110.539 35.2687L110.614 34.7368L110.182 34.0108C109.549 33.579 108.741 33.5289 108.033 33.9795C106.917 34.6179 106.291 35.8007 106.516 36.8583L106.874 37.384L107.406 37.5154ZM96.1277 38.5981H96.2781L97.0613 37.6093C97.1929 34.5365 97.2869 31.4074 96.4598 28.4035L96.0776 27.6463L96.0275 27.3396C95.3946 25.4685 94.154 23.8539 92.08 23.2218L91.0148 23.2406L89.6802 24.2106C89.0975 24.9928 89.4045 25.9754 89.0975 26.8828L89.4045 30.1433L90.2567 32.1396L90.4133 32.4964C91.2467 34.5365 92.7943 36.1323 94.4046 37.6093L95.4949 38.4228L96.1277 38.5981ZM38.1003 39.6306L38.3258 39.5618C39.6604 39.0299 40.5502 37.6093 40.8572 36.1824C40.8321 35.4252 40.5815 34.8432 40.2995 34.3613L38.8772 33.9795C38.2318 34.2612 37.5489 34.7368 37.3672 35.5503C37.198 36.7582 36.8408 37.6656 36.9912 38.6481L37.4737 39.5117L37.9812 39.6619L38.1003 39.6306ZM70.8265 40.3941H71.3528C72.5872 39.8121 73.3704 38.5981 73.5709 37.2651C73.5458 36.4265 73.5458 35.7256 73.1949 35.0935L72.8378 34.8932C72.1861 34.6867 71.3528 34.8432 70.72 35.1748L69.9367 36.5016C69.9367 37.4904 69.5858 38.5542 69.8866 39.5618L70.2375 40.1876L70.8265 40.3941ZM156.887 40.5443L157.238 40.3941L157.589 40.1188L157.814 39.8121C157.946 38.2977 158.096 36.5016 156.962 35.3751L156.229 35.2437L155.872 35.3751L155.089 36.1323C154.556 37.2651 154.136 38.5042 153.955 39.7621L154.205 40.1876C155.014 40.5443 155.972 40.3941 156.887 40.5443ZM21.0134 42.7222L21.7465 42.6408L22.7741 42.1089L23.2566 41.7271L23.9584 41.0763C26.2454 35.7256 23.8393 29.8617 22.4734 24.5861L21.9909 24.2356H21.4646C19.541 24.9928 19.0648 27.3396 18.5322 29.0794C17.5422 32.8969 16.6337 37.3089 18.6074 40.826C19.2653 41.4768 19.7478 42.1652 20.4808 42.6158L21.0134 42.7222ZM56.2773 42.8974L57.3362 42.791C58.251 42.4656 59.3663 41.7835 59.5919 40.6758C59.7423 39.0549 58.6082 38.1162 57.5931 37.2651C56.7848 36.8583 56.0016 36.6017 55.2622 36.6831L54.2347 37.5592C53.677 38.9297 53.9339 40.6758 54.7359 41.8836L55.6445 42.791L56.2773 42.8974ZM21.7465 45.1629C24.0649 44.8625 26.0135 43.5983 27.1476 41.433C27.5612 39.8121 28.3444 38.4228 28.0938 36.8833C27.6051 35.9821 27.7868 34.7368 28.263 33.8043L29.4785 33.022C32.6929 32.6466 36.1077 31.4825 38.0501 28.6038C39.109 26.9579 39.109 24.8614 38.7331 23.1217C37.6992 20.1928 35.2994 18.5532 32.7931 17.2891C29.4785 16.4818 25.9384 16.8635 22.6989 16.1063L22.2729 16.4129L22.0912 16.9386L21.8969 18.2027C17.2978 23.372 14.0271 30.6502 14.9419 37.9159C15.2489 39.1801 15.4244 40.294 15.8316 41.3767C16.6149 43.2479 18.5071 44.6121 20.4808 44.9939L21.7465 45.1629ZM51.2521 53.9305C52.7685 53.0419 52.2609 51.1769 52.6181 49.7438C52.2609 48.123 52.6181 46.4082 52.0604 44.8625L51.6281 44.512L50.7697 44.487C49.128 46.0327 49.5541 49.0304 49.2722 51.058C49.4539 51.7902 49.3035 52.2095 49.4539 52.7665C49.6857 53.2484 50.0366 53.7052 50.6444 54.0307L51.2521 53.9305ZM88.6151 56.4275C90.3883 56.4275 91.4221 54.838 92.5374 53.7052C93.753 51.4085 95.2944 49.3871 95.9774 47.009L96.1277 45.9263C96.6603 45.1378 96.5601 44.1303 96.5601 43.1728L96.3032 42.791C94.6114 42.0838 92.8883 43.2729 91.2279 43.8799C88.1201 46.0327 84.9057 48.4046 83.5648 51.809C83.7653 53.4236 84.2979 54.7566 85.5824 55.6453C86.6225 56.0708 87.6313 56.4588 88.6151 56.4275ZM50.1368 57.4163C50.7697 57.4351 51.3775 57.2912 51.9852 57.0909C53.6269 56.3086 54.7359 54.7566 55.0367 52.7915C55.1181 50.62 55.0367 48.5297 55.1181 46.4833C55.2873 45.7511 56.152 45.5196 56.8036 45.4945C59.1846 45.8825 61.4153 45.4945 63.6333 45.7762C66.3715 45.6447 68.7776 44.3556 71.3528 44.7936C73.7275 45.6447 76.6098 46.2267 78.9344 44.7936L79.6424 44.3117C80.0685 43.8799 80.7076 43.0914 80.4257 42.3342L80.2753 41.9086L79.6926 41.5269L78.8341 41.6333L78.1011 42.0087C77.0359 42.3342 75.7514 43.0914 74.6611 42.4155L74.4857 41.9086L76.0772 39.9123L76.5847 37.4904C76.71 36.6267 76.4281 35.8758 76.2276 35.0935C75.5759 33.7292 74.2539 32.39 72.5057 32.4964C70.8265 32.4651 68.8715 32.1146 67.8878 33.529L67.4367 33.8043C65.889 35.5503 65.6384 38.1475 66.171 40.4442L66.6221 41.8836L66.2399 42.4155L64.7487 42.791L63.7649 42.1089C63.4892 39.687 62.7561 36.9835 60.5255 35.519C58.3012 33.8857 55.7009 32.8969 53.0755 33.8043C49.0466 35.494 46.747 40.294 42.6805 41.9086L41.4337 41.7835L41.0326 41.433V41.0763C42.2169 39.2301 44.4224 37.8659 44.2909 35.494C44.1718 34.6429 43.8898 34.0609 43.5828 33.4789C42.5991 32.1396 40.6504 31.5827 39.109 31.7892C37.0915 32.1396 35.218 32.5464 34.2092 34.2862C33.3445 36.0009 33.8082 37.6093 33.7518 39.1801L33.451 39.7621L32.9435 40.0187C32.3107 40.1626 31.6277 39.9123 30.9948 39.9373L30.644 40.1626L30.4873 40.6507L30.7379 41.0763C32.0099 41.7835 33.5951 41.458 34.8671 42.2591L35.2994 42.6408C36.7343 43.7798 38.5765 45.1629 40.6504 44.9939C42.9061 44.7123 44.648 43.1728 46.747 42.9975L47.0541 43.1728L47.1794 43.5044L46.9225 46.6085C46.1643 49.1055 47.0791 51.6338 47.3298 54.1808L47.5303 54.7566C47.7057 55.47 48.2383 56.0708 48.6706 56.7091L49.5541 57.2912L50.1368 57.4163ZM87.5373 59.0059C90.664 59.1623 93.8971 58.0985 95.7205 55.5451C96.1277 54.3811 96.911 53.5488 97.4435 52.6852C98.1516 50.9016 98.8847 49.1055 99.4674 47.1905C100.05 45.9263 100.2 44.3117 100.652 42.8724L100.783 42.4656L101.009 42.1652C101.792 41.7271 102.707 41.9086 103.515 42.2403L105.282 43.905C107.632 45.1128 110.639 46.4833 113.177 44.7623C114.693 43.8549 116.26 43.9801 117.494 44.7623C118.334 45.3506 119.468 45.6447 120.383 45.1629C121.517 44.6622 122.143 43.7798 123.058 43.2729L124.493 43.4231C125.101 44.1553 125.984 44.7123 126.699 45.3944L127.356 45.6447L128.309 44.9939C129.305 42.9725 129.65 40.8009 130.289 38.5542L131.348 37.1587L132.588 37.1086C135.195 38.2476 135.42 41.433 136.511 43.6797L136.786 43.905L137.676 43.9801C139.387 42.7472 138.522 40.4442 140.02 39.0549L140.527 38.7795H140.903C142.751 40.1188 143.228 42.7472 145.233 44.3117C145.74 44.6121 146.317 44.9376 147.025 45.1629L148.623 44.9939C149.807 44.487 150.239 42.8974 151.505 42.4155L151.856 42.3655C153.278 42.9725 153.278 45.1128 154.888 45.6009C155.972 45.8513 157.238 46.0327 158.347 45.7511L159.381 45.1629C160.603 43.1477 163.109 42.6408 165.333 42.5407L165.734 42.1089L165.709 41.6082L165.358 41.2515C164.425 40.826 163.385 41.0012 162.376 40.8009L161.442 40.0187C161.085 37.384 161.311 33.9044 158.579 32.5464C157.031 31.7391 155.49 32.4651 154.262 33.1722C151.405 35.519 151.323 39.9373 148.29 42.1652C147.783 42.4155 147.125 42.4155 146.523 42.2591L145.884 41.7835C145.508 40.1626 144.675 38.5542 144.368 36.8833L143.81 35.494C143.51 34.9183 143.052 34.5115 142.676 34.0108L142.194 33.7292C140.803 33.2786 139.186 33.7292 138.246 34.8432L137.52 35.6505L135.903 35.7256L135.446 35.4252C134.311 34.2111 132.313 33.7292 130.69 34.0108C127.789 34.8932 128.108 38.6481 125.633 40.0187C124.568 40.294 123.584 39.3052 122.444 39.5117C120.984 39.9123 121.009 41.6583 119.743 42.2591H119.211L118.478 41.9837C117.72 41.1263 117.876 39.9123 118.252 38.8734C118.66 38.1975 119.211 37.7407 119.7 37.384L123.234 36.6831L124.85 36.1824L125.101 35.9821L125.201 35.0935L124.217 34.2862C123.334 33.9044 122.444 34.2862 121.517 34.0609L120.076 34.111C118.384 34.6867 116.611 35.8007 115.752 37.5592L115.57 38.2977C114.869 40.5443 113.146 42.5407 110.714 42.9725C109.781 42.8974 108.973 42.6408 108.484 41.9086L108.415 41.433C110.238 39.687 113.346 39.0048 113.603 35.8007C113.96 34.7368 113.572 33.7292 112.87 33.1222C111.278 31.858 109.148 31.5827 107.5 32.1146C105.658 32.6466 104.442 34.0108 103.515 35.325L102.807 37.384L102.274 37.9159L101.742 37.9722L101.184 37.6093L100.934 37.1086C100.677 36.1824 100.934 35.325 100.934 34.3613C100.326 32.997 100.508 31.6327 99.9185 30.2184C99.8183 29.6114 99.8684 29.2296 99.8183 28.729C98.5338 25.4997 97.0613 21.8074 93.3457 20.8687C91.2467 20.4494 88.9973 21.0752 87.5373 22.3894C87.0799 23.0966 86.7792 23.7475 86.4471 24.3608C85.4383 27.7151 86.6977 31.2322 88.2642 34.2862C89.3544 36.1574 90.7642 37.5154 92.2617 38.8734L92.3808 39.1801L92.3557 40.294L91.0148 41.1827L90.4823 41.2765L85.4383 43.5044L84.6488 44.3117L83.5648 45.1378C81.8668 46.6836 81.3342 49.337 81.3154 51.6838C81.5911 52.6163 81.541 53.6802 81.7164 54.7566C82.556 57.0659 84.5736 58.4489 86.9546 58.9558L87.5373 59.0059Z" fill="#1A1A1A"/>
</svg>
